<svg width="582" height="765" viewBox="0 0 582 765" fill="none" xmlns="http://www.w3.org/2000/svg">
<path d="M442.837 0.327703C474.657 -2.87005 483.851 18.0607 508.096 31.5099C528.714 42.947 555.39 38.7506 566.469 65.2815C575.163 86.102 572.672 103.755 564.952 124.286C583.557 151.19 581.433 169.615 581.439 200.61L581.427 253.363L581.438 425.034L581.444 598.972C581.357 612.802 581.356 626.632 581.442 640.462C581.541 657.105 581.981 675.978 579.205 692.212C577.358 703.679 573.234 714.66 567.076 724.508C560.918 734.356 552.85 742.872 543.349 749.553C519.456 766.146 503.261 764.619 475.788 764.57H287.003L158.433 764.586L122.706 764.594C103.415 764.594 86.4102 765.305 69.043 755.685C55.5857 748.23 46.7592 739.435 38.2055 726.794C20.4945 698.843 23.7584 670.314 23.8743 638.774L23.9552 564.437C23.3324 564.248 22.7133 564.046 22.0983 563.833C13.5282 560.86 7.54424 555.929 3.57155 547.638C-0.674759 538.57 -1.15426 528.189 2.23806 518.769C6.33488 507.481 13.5266 501.81 23.9805 496.939L23.9838 419.425C22.6292 419.015 21.2947 418.54 19.9849 418.004C11.8248 414.62 6.00661 408.559 2.73863 400.364C-0.944255 390.939 -0.763219 380.443 3.24246 371.151C7.66265 361.155 14.0696 356.241 24.0279 352.472L23.9723 274.876C22.4294 274.373 20.9087 273.805 19.4141 273.172C11.7423 269.908 5.89229 263.494 2.82519 255.8C-0.945779 246.096 -0.711709 235.293 3.476 225.761C7.98111 215.694 14.1561 211.778 24.023 207.925C23.9446 183.848 21.4679 152.353 30.3842 130.849C18.0251 105.03 19.3104 66.2524 45.1424 48.8011C57.561 40.4107 73.7923 40.2531 87.0578 33.2607C102.986 24.8645 114.883 9.7601 132.068 3.78268C138.97 1.33708 146.289 0.2837 153.6 0.68344C160.912 1.08318 168.072 2.92811 174.666 6.11158C204.644 20.8126 224.337 60.2039 234.686 90.7231C274.236 91.5233 316.438 90.8284 356.165 90.8202C369.698 53.7807 399.966 4.22609 442.837 0.327703Z" fill="black"/>
<path d="M165.63 122.55L424.627 122.534C429.016 133.222 435.209 143.077 442.935 151.668C468.964 180.348 509.219 181.949 538.85 157.679C541.571 155.451 544.128 153.038 546.706 150.648C554.983 165.339 553.619 178.264 553.591 194.537C553.574 204.399 553.503 214.298 553.48 224.16L553.218 323.967L552.92 476.863C552.825 502.267 552.694 527.852 552.398 553.267C552.32 560.017 550.355 567.563 546.93 573.556C534.112 595.984 506.104 583.466 485.666 589.894C475.992 592.936 470.834 596.585 463.501 603.377C451.863 614.739 446.178 630.445 444.98 646.463C444.033 659.132 447.471 673.329 436.701 682.495C430.438 683.429 413.392 682.983 406.086 682.98L346.757 682.958L131.483 683.095L131.485 165.024C149.294 152.414 156.802 142.409 165.63 122.55Z" fill="#FAF4ED"/>
<path d="M266.257 380.733C287.851 379.269 297.778 390.194 307.442 408.106C320.257 383.583 344.298 368.827 368.741 391.196C381.269 402.661 383.215 420.157 383.137 436.477C429.907 421.726 444.682 481.456 422.289 512.154C413.941 523.598 404.909 528.386 391.044 530.584L391.448 531.452C406.31 563.668 396.746 601.745 363.12 616.916C352.094 621.145 340.814 621.732 329.623 617.945C312.895 612.284 304.979 611.642 288.325 616.968C234.337 634.23 199.887 578.571 222.229 530.805C206.839 528.044 196.221 521.004 188.741 507.08C171.075 474.191 186.296 423.075 231.451 436.589C231.075 411.382 237.997 385.937 266.257 380.733Z" fill="black"/>
<path d="M306.424 476.846C335.018 477.712 343.486 497.239 357.563 518.283C359.394 521.018 364.331 525.303 366.815 527.907C371.118 532.45 374.47 537.806 376.676 543.662C378.881 549.518 379.895 555.755 379.657 562.008C379.111 577.84 370.254 594.201 354.236 598.746C337.767 603.418 323.562 593.008 306.942 592.474C292.174 592.663 284.855 598.843 272.258 599.888C267.768 600.256 263.249 599.734 258.962 598.351C254.674 596.969 250.701 594.754 247.271 591.833C228.911 576.136 229.318 545.263 245.527 528.331C249.461 524.22 254.491 520.068 257.861 515.571C263.245 508.388 267.055 499.862 273.169 493.151C282.719 482.501 292.324 477.792 306.424 476.846Z" fill="#FEBEBC"/>
<path d="M341.326 400.713C369.671 397.879 374.306 453.12 344.647 462.139C315.931 466.937 310.393 409.48 341.326 400.713Z" fill="#FEBEBC"/>
<path d="M267.737 400.704C296.173 397.407 305.213 454.554 275.048 462.517C248.702 465.145 237.333 410.473 267.737 400.704Z" fill="#FEBEBC"/>
<path d="M214.241 454.209C242.102 451.636 256.027 501.167 228.776 510.563C205.122 512.206 192.898 481.46 203.035 462.863C205.674 458.022 209.346 456.037 214.241 454.209Z" fill="#FEBEBC"/>
<path d="M393.978 454.186C420.823 451.805 422.218 500.614 391.763 510.467C363.859 514.299 362.772 462.254 393.978 454.186Z" fill="#FEBEBC"/>
<path d="M232.043 200.806C258.506 201.318 264.519 237.431 259.919 257.563C255.703 276.016 241.823 291.507 221.604 281.748C220.993 281.358 220.389 280.957 219.792 280.545C211.103 274.518 208.178 264.39 206.403 254.553C211.769 254.687 216.97 254.554 221.083 250.524C222.152 249.493 222.994 248.251 223.557 246.878C224.12 245.504 224.391 244.028 224.352 242.544C224.302 241.19 223.981 239.861 223.409 238.633C222.836 237.406 222.023 236.306 221.019 235.398C216.744 231.476 211.451 232.001 206.139 232.094C209.56 217.705 215.131 202.792 232.043 200.806Z" fill="black"/>
<path d="M373.793 201.227C419.62 196.277 415.294 298.982 369.119 282.796C367.641 282.013 366.226 281.114 364.889 280.108C356.595 273.918 353.731 264.369 352.171 254.666C361.912 254.324 366.762 253.01 369.191 243.07C366.703 232.377 361.993 231.543 351.815 232.093C354.54 217.637 358.446 206.065 373.793 201.227Z" fill="black"/>
<path d="M282.494 284.203C290.38 283.792 290.802 287.547 294.745 293.464C300.065 301.45 308.872 304.107 316.206 296.877C320.033 293.104 322.515 288.251 326.872 285.197C332.287 281.705 336.016 284.4 337.92 289.742C339.539 294.284 336.578 300.262 334.538 304.126C331.869 307.954 327.893 311.857 323.927 314.328C320.462 316.523 316.588 317.993 312.539 318.65C308.49 319.307 304.35 319.137 300.369 318.15C289.875 315.553 274.136 303.517 276.683 290.507C277.289 287.413 279.792 285.622 282.494 284.203Z" fill="black"/>
<path d="M53.5311 159.832C55.2271 160.74 58.9467 163.334 60.7089 164.456C77.0234 174.836 94.1497 177.1 112.859 172.888L112.783 683.65C96.2173 683.827 76.8879 686.09 64.6089 672.8C51.078 658.155 52.9031 635.919 53.26 617.471L53.1595 544.088C63.6241 544.275 79.4863 545.858 87.377 538.127C96.9278 528.633 97.1311 510.164 87.2961 500.809C78.9114 492.833 64.0095 494.592 53.1734 494.671C53.7654 465.027 53.8152 430.491 53.215 400.828C56.4188 400.958 59.6233 401.055 62.8287 401.119C71.7385 401.301 80.8859 400.957 87.7314 394.257C97.1237 385.199 96.8379 366.826 87.5803 357.775C79.4348 349.811 63.798 351.178 53.26 351.213C52.8533 342.252 53.3032 331.746 53.2069 322.606C52.9742 300.357 53.4984 277.844 53.2436 255.623C63.4346 255.905 80.1387 257.509 87.9951 249.528C99.2044 238.141 96.2337 214.035 79.9419 208.61C72.048 205.981 61.7549 206.886 53.4641 207.064C53.0746 191.322 53.0966 175.573 53.5311 159.832Z" fill="#FED99D"/>
<path d="M551.81 616.02C552.943 617.197 552.373 644.393 552.452 648.492C552.912 672.446 552.799 697.349 534.916 715.657C524 726.836 511.452 732.079 495.858 731.768C463.746 731.997 431.577 731.891 399.458 731.883H224.486L139.323 731.85C112.045 731.874 91.6078 737.19 70.263 716.768C63.5147 709.786 59.9185 703.016 56.7109 693.993C77.9585 704.829 89.1703 703.58 112.258 703.555L150.624 703.531L273.271 703.539H386.334L420.212 703.572C430.597 703.572 445.071 703.996 454.939 701.506C499.371 690.302 528.922 652.551 551.81 616.02Z" fill="#FAF4ED"/>
<path d="M445.356 32.3427C461.102 31.7548 469.542 42.3663 481.455 50.9168C488.418 55.916 492.889 58.854 500.852 62.5132C504.569 64.2283 508.381 65.7286 512.269 67.0068C519.61 69.3782 529.636 71.3266 536.11 75.4463C539.181 78.2798 541.617 84.2066 542.132 88.0487C545.502 113.157 524 139.449 499.406 143.31C486.316 145.366 477.232 141.481 466.956 134.031C453.829 123.199 447.365 104.697 444.338 88.5019C443.436 83.5003 443.321 78.6416 442.114 73.6833C439.494 62.919 425.042 60.5052 418.752 69.4566C414.485 75.5296 416.146 84.0082 417.394 90.8324L387.09 90.8781C398 69.241 418.861 34.3132 445.356 32.3427Z" fill="#C56F35"/>
<path d="M149.901 32.3193C176.404 33.0796 194.606 69.5467 203.472 90.8188C193.797 90.9086 184.121 90.9307 174.445 90.8849C177.039 80.4759 177.608 64.7558 161.782 63.7408C152.797 63.8935 148.639 74.3629 147.609 81.4542C144.621 102.035 138.373 118.553 123.731 133.617C116.14 140.096 111.59 142.38 101.238 143.99C68.6134 149.063 37.552 106.349 57.8679 78.6174C62.3583 72.4881 78.503 69.6186 86.0883 66.8267C97.0208 62.8033 107.326 57.0799 116.642 49.9176C128.243 40.9335 134.71 33.4209 149.901 32.3193Z" fill="#C56F35"/>
<path d="M523.842 607.908C526.769 607.703 530.213 607.686 533.181 607.605C515.493 636.353 495.914 657.929 466.76 675.148L461.253 677.923C463.512 657.387 459.705 635.209 474.545 619.519C488.265 605.014 505.675 608.38 523.842 607.908Z" fill="#FAF4ED"/>
</svg>
